<?xml version="1.0" encoding="utf-8"?>
<!-- Generator: Adobe Illustrator 21.0.2, SVG Export Plug-In . SVG Version: 6.00 Build 0)  -->
<svg version="1.1" id="Layer_1" xmlns="http://www.w3.org/2000/svg" xmlns:xlink="http://www.w3.org/1999/xlink" x="0px" y="0px"
	 viewBox="0 0 496 404" style="enable-background:new 0 0 496 404;" xml:space="preserve">
<style type="text/css">
	.st0{fill:#1A1A1A;}
	.st1{fill:#FFFF00;}
	.st2{fill:#FF0000;}
</style>
<g id="rect">
	<g>
		<rect x="102.5" y="64.5" class="st0" width="273" height="194"/>
		<path d="M375,65v193H103V65H375 M376,64H102v195h274V64L376,64z"/>
	</g>
</g>
<g id="circles">
	<g id="yellow">
		<path class="st1" d="M408,135.5c-35,0-63.5-28.5-63.5-63.5S373,8.5,408,8.5S471.5,37,471.5,72S443,135.5,408,135.5z"/>
		<path class="st1" d="M408,9c34.7,0,63,28.3,63,63s-28.3,63-63,63s-63-28.3-63-63S373.3,9,408,9 M408,8c-35.3,0-64,28.7-64,64
			s28.7,64,64,64s64-28.7,64-64S443.3,8,408,8L408,8z"/>
	</g>
	<g id="red">
		<path class="st2" d="M120.5,393.5c-56.8,0-103-46.2-103-103s46.2-103,103-103s103,46.2,103,103S177.3,393.5,120.5,393.5z"/>
		<path class="st2" d="M120.5,188C177,188,223,234,223,290.5S177,393,120.5,393S18,347,18,290.5S64,188,120.5,188 M120.5,187
			C63.3,187,17,233.3,17,290.5S63.3,394,120.5,394S224,347.7,224,290.5S177.7,187,120.5,187L120.5,187z"/>
	</g>
</g>
</svg>
